# xmcd
#
# Track frame offsets:
#	150
#	13581
#	26193
#	45419
#	61385
#	77047
#	89146
#	105698
#	120302
#	135637
#	150608
#	168278
#	185292
#
# Disc length: 2876 seconds
#
# Revision: 1
# Processed by: cddbd v1.5.2PL0 Copyright (c) Steve Scherf et al.
# Submitted via: audiograbber 1.83.01
#
DISCID=a00b3a0d
DTITLE=BÓDI GUSZTI és a FEKETE SZEMEK - Forr a vérem
DYEAR=1900
DGENRE=
TTITLE0=Csókot adtál
TTITLE1=Érzem amit érzel
TTITLE2=Jó az idegenben
TTITLE3=Rozmaring
TTITLE4=Úgy szeretlek tégedet
TTITLE5=Miért gondolok Rád
TTITLE6=Ezer bûn
TTITLE7=Amikor Õrá gondolok
TTITLE8=Élet-élet
TTITLE9=Ablakomban
TTITLE10=Forr a vérem
TTITLE11=Ne sírjál
TTITLE12=Bódi MIX
EXTD=
EXTT0=
EXTT1=
EXTT2=
EXTT3=
EXTT4=
EXTT5=
EXTT6=
EXTT7=
EXTT8=
EXTT9=
EXTT10=
EXTT11=
EXTT12=
PLAYORDER=
